<?xml version="1.0" encoding="UTF-8"?><svg id="Capa_1" xmlns="http://www.w3.org/2000/svg" viewBox="0 0 32 32"><defs><style>.cls-1{fill:#fff;}.cls-1,.cls-2{stroke-width:0px;}.cls-2{fill:#1d1d1b;}</style></defs><path class="cls-2" d="M16,32C7.16,32,0,24.84,0,16S7.16,0,16,0s16,7.16,16,16-7.16,16-16,16"/><path class="cls-1" d="M10.12,13.8v-2.3h10.63c.16,0,.34-.02.53-.07.19-.05.37-.15.54-.31.17-.16.32-.39.43-.69.12-.3.18-.69.18-1.18s-.06-.92-.18-1.23c-.12-.32-.26-.56-.42-.73-.16-.17-.34-.28-.53-.34-.19-.05-.36-.08-.5-.08h-10.69v-2.3h11.06c.22,0,.5.04.87.11.36.07.72.27,1.08.58.36.32.67.78.93,1.39.26.61.39,1.46.39,2.54s-.13,1.93-.39,2.54c-.26.61-.57,1.07-.93,1.38-.36.31-.73.5-1.1.57-.37.07-.65.11-.85.11h-11.06Z"/><path class="cls-1" d="M21.29,24.6h.39c.26,0,.52-.05.79-.15.27-.1.52-.28.75-.54.23-.26.42-.6.56-1.02.14-.43.21-.96.21-1.6,0-1.29-.26-2.16-.79-2.61-.53-.45-1.17-.68-1.91-.68h-9.39c-.98,0-1.71.23-2.18.7-.48.46-.71,1.33-.71,2.59s.25,2.16.75,2.63,1.22.7,2.14.7v3.25h-1.12c-.46,0-.97-.08-1.53-.25-.55-.17-1.06-.5-1.53-.99-.46-.49-.85-1.16-1.16-2.01-.31-.85-.46-1.96-.46-3.32s.15-2.47.46-3.32c.31-.85.7-1.52,1.16-2.01.46-.49.97-.82,1.53-.99.55-.17,1.06-.25,1.53-.25h11.44c.64,0,1.25.12,1.82.37.57.24,1.06.64,1.49,1.18.42.54.76,1.22,1,2.05.24.82.37,1.82.37,2.97,0,2.29-.44,3.96-1.33,5-.89,1.04-2,1.56-3.34,1.56h-.93v-3.25Z"/></svg>