<?xml version="1.0" encoding="utf-8"?>
<!-- Generator: Adobe Illustrator 28.2.0, SVG Export Plug-In . SVG Version: 6.00 Build 0)  -->
<svg version="1.1" id="Capa_1" xmlns="http://www.w3.org/2000/svg" xmlns:xlink="http://www.w3.org/1999/xlink" x="0px" y="0px"
	 viewBox="0 0 148.2 61.6" style="enable-background:new 0 0 148.2 61.6;" xml:space="preserve">
<style type="text/css">
	.st0{fill:#111110;}
	.st1{fill:#FFFFFF;}
</style>
<path class="st0" d="M82.1,29.9h-2.5V18.5v-0.3c0-0.2,0-0.4-0.1-0.6c0-0.2-0.2-0.4-0.3-0.6c-0.2-0.2-0.4-0.3-0.8-0.5
	c-0.3-0.1-0.8-0.2-1.3-0.2c-0.6,0-1,0.1-1.3,0.2c-0.3,0.1-0.6,0.3-0.8,0.5c-0.2,0.2-0.3,0.4-0.4,0.6c-0.1,0.2-0.1,0.4-0.1,0.5v0.3
	v11.4H72V18.3v-0.5c0-0.2,0-0.6,0.1-0.9c0.1-0.4,0.3-0.8,0.6-1.2c0.3-0.4,0.9-0.7,1.5-1c0.7-0.3,1.6-0.4,2.8-0.4
	c1.2,0,2.1,0.1,2.8,0.4c0.7,0.3,1.2,0.6,1.5,1c0.3,0.4,0.5,0.8,0.6,1.2c0.1,0.4,0.1,0.7,0.1,0.9v0.3V29.9z"/>
<path class="st0" d="M90,14.2c1.2,0,2.1,0.1,2.8,0.4c0.7,0.3,1.2,0.6,1.5,1c0.3,0.4,0.5,0.8,0.6,1.2c0.1,0.4,0.1,0.7,0.1,0.9v0.7v0
	v0.7c0,0.3-0.1,0.7-0.2,1.1c-0.1,0.4-0.4,0.9-0.9,1.3c-0.2,0.2-0.5,0.4-0.7,0.5c-0.3,0.1-0.5,0.2-0.7,0.3c-0.3,0.1-0.5,0.1-0.8,0.1
	h-2.2c-0.5,0-1,0.2-1.4,0.6c-0.4,0.4-0.6,0.8-0.6,1.4v1.3c0,0.5,0.1,0.8,0.3,1.1c0.1,0.1,0.2,0.3,0.3,0.4c0.1,0.1,0.2,0.2,0.4,0.3
	c0.2,0.1,0.4,0.1,0.6,0.2c0.2,0.1,0.6,0.1,1,0.1c0.5,0,0.9-0.1,1.2-0.2c0.3-0.1,0.5-0.2,0.6-0.3c0.3-0.2,0.4-0.4,0.5-0.7
	c0.1-0.3,0.1-0.6,0.1-0.9h2.5v0.7c0,0.5-0.1,1-0.3,1.5c-0.2,0.5-0.6,0.8-1.1,1.2c-0.3,0.2-0.8,0.4-1.4,0.6c-0.6,0.2-1.3,0.3-2.2,0.3
	c-0.7,0-1.3-0.1-1.7-0.2c-0.5-0.1-0.9-0.2-1.3-0.4c-0.4-0.2-0.7-0.4-0.9-0.6c-0.2-0.2-0.4-0.4-0.6-0.7c-0.4-0.5-0.5-1.1-0.5-1.8
	v-0.7v-1.3v-6v0v-0.7c0-0.2,0-0.6,0.1-0.9c0.1-0.4,0.3-0.8,0.6-1.2c0.3-0.4,0.8-0.7,1.5-1C87.9,14.3,88.8,14.2,90,14.2 M92.5,18.5
	v-0.3c0-0.2,0-0.4-0.1-0.6c0-0.2-0.2-0.4-0.3-0.6c-0.2-0.2-0.4-0.3-0.8-0.5s-0.8-0.2-1.3-0.2c-0.6,0-1,0.1-1.3,0.2
	c-0.3,0.1-0.6,0.3-0.8,0.5c-0.2,0.2-0.3,0.4-0.4,0.6c-0.1,0.2-0.1,0.4-0.1,0.5v0.3v0v0.2v2.5c0-0.2,0.1-0.3,0.3-0.4
	c0.1-0.1,0.3-0.2,0.5-0.3c0.2-0.1,0.4-0.1,0.5-0.1c0.2,0,0.3,0,0.4,0h1.7c0.5,0,0.8-0.2,1.2-0.5c0.3-0.3,0.5-0.7,0.5-1.2V18.5
	L92.5,18.5z"/>
<path class="st0" d="M107.5,32.2L107.5,32.2l0,0.4c0,0.2,0,0.6-0.1,0.9c-0.1,0.4-0.3,0.8-0.6,1.2c-0.3,0.4-0.8,0.7-1.5,1
	c-0.7,0.3-1.6,0.4-2.8,0.4c-1.2,0-2.1-0.1-2.8-0.4c-0.7-0.3-1.2-0.6-1.5-1c-0.3-0.4-0.5-0.8-0.6-1.2c-0.1-0.4-0.1-0.7-0.1-0.9v-0.8
	h2.5v0.3c0,0.2,0,0.4,0.1,0.6c0,0.2,0.2,0.4,0.3,0.6s0.4,0.4,0.8,0.5c0.3,0.1,0.8,0.2,1.3,0.2c0.6,0,1-0.1,1.4-0.2
	c0.3-0.1,0.6-0.3,0.8-0.5c0.2-0.2,0.3-0.4,0.4-0.6c0.1-0.2,0.1-0.4,0.1-0.6v0v-0.5c0-0.2,0-0.4-0.1-0.6c-0.1-0.2-0.2-0.3-0.3-0.5
	c-0.1-0.1-0.2-0.2-0.4-0.3c-0.1-0.1-0.2-0.1-0.3-0.2c-0.1,0-0.3-0.1-0.6-0.2c-0.3-0.1-0.7-0.3-1.1-0.4c-0.4-0.1-0.9-0.3-1.3-0.5
	c-0.5-0.2-0.9-0.3-1.2-0.4c-0.7-0.3-1.3-0.7-1.6-1.3c-0.4-0.6-0.6-1.3-0.6-2v-0.7V14.5h2.5v10.1v0.1c0,0.4,0.1,0.7,0.2,0.9
	c0.1,0.2,0.3,0.4,0.5,0.6c0.2,0.2,0.4,0.3,0.7,0.4c0.3,0.1,0.7,0.2,1,0.4c0.3,0.1,0.6,0.2,1,0.3c0.3,0.1,0.7,0.2,1,0.3
	c0.2,0,0.3,0.1,0.5,0.2c0.1,0.1,0.2,0.3,0.3,0.5v-3.7v-0.1V14.5h2.5V32.2z"/>
<path class="st0" d="M75.7,40.8v-0.2c0-0.1,0-0.2-0.1-0.3c0-0.1-0.1-0.2-0.2-0.3c-0.1-0.1-0.3-0.2-0.4-0.2c-0.2-0.1-0.4-0.1-0.7-0.1
	c-0.6,0-0.9,0.1-1.1,0.3c-0.2,0.2-0.3,0.5-0.3,0.8v4.1c0,0.4,0.1,0.7,0.3,0.9c0.2,0.2,0.6,0.3,1.1,0.3c0.6,0,0.9-0.1,1.1-0.3
	c0.2-0.2,0.3-0.5,0.3-0.9h1.4v0.5c0,0.2,0,0.4-0.1,0.7c-0.1,0.2-0.2,0.5-0.4,0.7c-0.2,0.2-0.5,0.4-0.9,0.5c-0.4,0.1-0.9,0.2-1.4,0.2
	c-0.6,0-1.1-0.1-1.4-0.2s-0.7-0.3-0.9-0.5c-0.2-0.2-0.4-0.4-0.4-0.7c-0.1-0.2-0.1-0.5-0.1-0.7v-0.8v-3.8v-0.4c0-0.3,0.1-0.5,0.2-0.8
	c0.1-0.2,0.3-0.5,0.5-0.6c0.2-0.2,0.5-0.3,0.9-0.4c0.4-0.1,0.8-0.2,1.3-0.2c1,0,1.7,0.2,2.2,0.6c0.5,0.4,0.7,0.9,0.7,1.5v0.4H75.7z"
	/>
<path class="st0" d="M84.5,45.1v0.3c0,0.1,0,0.3-0.1,0.5c0,0.2-0.2,0.4-0.4,0.7c-0.2,0.2-0.5,0.4-0.9,0.6c-0.4,0.2-0.9,0.2-1.6,0.2
	c-0.7,0-1.2-0.1-1.6-0.2c-0.4-0.2-0.7-0.4-0.9-0.6c-0.2-0.2-0.3-0.4-0.4-0.7c0-0.2-0.1-0.4-0.1-0.5v-0.2v-4.8c0-0.1,0-0.3,0.1-0.5
	c0-0.2,0.2-0.5,0.4-0.7c0.2-0.2,0.5-0.4,0.9-0.6c0.4-0.2,0.9-0.2,1.6-0.2c0.7,0,1.2,0.1,1.6,0.2c0.4,0.2,0.7,0.4,0.9,0.6
	c0.2,0.2,0.3,0.4,0.4,0.7c0,0.2,0.1,0.4,0.1,0.5V45.1z M83.1,44.9v-4.1v-0.2c0-0.1,0-0.2-0.1-0.3c0-0.1-0.1-0.2-0.2-0.3
	c-0.1-0.1-0.3-0.2-0.4-0.3c-0.2-0.1-0.4-0.1-0.8-0.1c-0.3,0-0.5,0-0.7,0.1c-0.2,0.1-0.3,0.2-0.4,0.3c-0.1,0.1-0.2,0.2-0.2,0.3
	c0,0.1,0,0.2,0,0.3v0.2v4.1v0.2c0,0.1,0,0.2,0,0.3c0,0.1,0.1,0.2,0.2,0.3c0.1,0.1,0.2,0.2,0.4,0.3c0.2,0.1,0.4,0.1,0.7,0.1
	c0.3,0,0.6,0,0.8-0.1c0.2-0.1,0.3-0.2,0.4-0.3c0.1-0.1,0.2-0.2,0.2-0.3c0-0.1,0.1-0.2,0.1-0.3V44.9z"/>
<rect x="86.6" y="35.1" class="st0" width="1.4" height="12.2"/>
<path class="st0" d="M99.6,47.2h-1.4v-6.4v-0.2c0-0.1,0-0.2,0-0.3c0-0.1-0.1-0.2-0.2-0.3c-0.1-0.1-0.2-0.2-0.4-0.3
	c-0.2-0.1-0.4-0.1-0.7-0.1c-0.3,0-0.6,0-0.8,0.1c-0.2,0.1-0.3,0.2-0.5,0.3c-0.1,0.1-0.2,0.2-0.2,0.3c0,0.1-0.1,0.2-0.1,0.3v0.2v6.4
	h-1.4v-6.4v-0.2c0-0.1,0-0.2,0-0.3c0-0.1-0.1-0.2-0.2-0.3c-0.1-0.1-0.2-0.2-0.4-0.3c-0.2-0.1-0.4-0.1-0.7-0.1s-0.6,0-0.8,0.1
	c-0.2,0.1-0.3,0.2-0.5,0.3c-0.1,0.1-0.2,0.2-0.2,0.3c0,0.1-0.1,0.2-0.1,0.3v0.2v6.4h-1.4v-6.6v-0.3c0-0.1,0-0.3,0.1-0.5
	c0-0.2,0.2-0.4,0.4-0.7c0.2-0.2,0.5-0.4,0.9-0.6c0.4-0.2,0.9-0.2,1.6-0.2c0.5,0,1,0.1,1.3,0.2c0.3,0.1,0.6,0.2,0.8,0.4
	c0.2-0.2,0.5-0.3,0.8-0.4c0.3-0.1,0.8-0.2,1.3-0.2c0.7,0,1.2,0.1,1.6,0.2c0.4,0.2,0.7,0.4,0.9,0.6c0.2,0.2,0.3,0.4,0.4,0.7
	c0,0.2,0.1,0.4,0.1,0.5v0.2V47.2z"/>
<path class="st0" d="M104.1,38.4c0.7,0,1.2,0.1,1.6,0.2c0.4,0.2,0.7,0.4,0.9,0.6c0.2,0.2,0.3,0.4,0.4,0.7c0,0.2,0.1,0.4,0.1,0.5v0.4
	v0v0.4c0,0.2,0,0.4-0.1,0.6c-0.1,0.2-0.2,0.5-0.5,0.8c-0.1,0.1-0.3,0.2-0.4,0.3c-0.2,0.1-0.3,0.1-0.4,0.2c-0.1,0-0.3,0.1-0.5,0.1
	h-1.3c-0.3,0-0.5,0.1-0.8,0.3c-0.2,0.2-0.3,0.5-0.3,0.8V45c0,0.3,0,0.5,0.2,0.6c0,0.1,0.1,0.1,0.2,0.2c0.1,0.1,0.1,0.1,0.3,0.2
	c0.1,0,0.2,0.1,0.3,0.1c0.1,0,0.3,0,0.5,0c0.3,0,0.5,0,0.7-0.1c0.2-0.1,0.3-0.1,0.4-0.2c0.1-0.1,0.2-0.2,0.3-0.4
	c0.1-0.2,0.1-0.3,0.1-0.5h1.4v0.4c0,0.3-0.1,0.6-0.2,0.8c-0.1,0.3-0.3,0.5-0.6,0.7c-0.2,0.1-0.5,0.3-0.8,0.4
	c-0.3,0.1-0.8,0.2-1.3,0.2c-0.4,0-0.7,0-1-0.1c-0.3-0.1-0.5-0.1-0.7-0.2c-0.2-0.1-0.4-0.2-0.5-0.3c-0.1-0.1-0.2-0.2-0.3-0.4
	c-0.2-0.3-0.3-0.6-0.3-1V45v-0.8v-3.4v0v-0.4c0-0.1,0-0.3,0.1-0.5c0-0.2,0.2-0.4,0.4-0.7c0.2-0.2,0.5-0.4,0.9-0.6
	C102.9,38.4,103.5,38.4,104.1,38.4 M105.5,40.8v-0.2c0-0.1,0-0.2,0-0.3c0-0.1-0.1-0.2-0.2-0.3c-0.1-0.1-0.2-0.2-0.4-0.3
	c-0.2-0.1-0.4-0.1-0.7-0.1c-0.3,0-0.6,0-0.8,0.1c-0.2,0.1-0.3,0.2-0.5,0.3c-0.1,0.1-0.2,0.2-0.2,0.3c0,0.1,0,0.2,0,0.3v0.2v0V41v1.4
	c0-0.1,0.1-0.2,0.2-0.2c0.1-0.1,0.2-0.1,0.3-0.1c0.1,0,0.2-0.1,0.3-0.1c0.1,0,0.2,0,0.2,0h1c0.3,0,0.5-0.1,0.7-0.3
	c0.2-0.2,0.3-0.4,0.3-0.7V40.8L105.5,40.8z"/>
<path class="st0" d="M114,47.2h-1.4v-6.4v-0.2c0-0.1,0-0.2,0-0.3c0-0.1-0.1-0.2-0.2-0.3c-0.1-0.1-0.2-0.2-0.4-0.3
	c-0.2-0.1-0.4-0.1-0.7-0.1c-0.3,0-0.6,0-0.8,0.1c-0.2,0.1-0.3,0.2-0.5,0.3c-0.1,0.1-0.2,0.2-0.2,0.3c0,0.1-0.1,0.2-0.1,0.3v0.2v6.4
	h-1.4v-6.6v-0.3c0-0.1,0-0.3,0.1-0.5c0-0.2,0.2-0.4,0.4-0.7c0.2-0.2,0.5-0.4,0.9-0.6c0.4-0.2,0.9-0.2,1.6-0.2c0.7,0,1.2,0.1,1.6,0.2
	c0.4,0.2,0.7,0.4,0.9,0.6c0.2,0.2,0.3,0.4,0.4,0.7c0,0.2,0.1,0.4,0.1,0.5v0.2V47.2z"/>
<path class="st0" d="M118.5,38.4c1,0,1.7,0.2,2.2,0.6c0.5,0.4,0.7,0.9,0.7,1.5v0.8v3.7v0.5c0,0.2,0,0.4-0.1,0.7
	c-0.1,0.2-0.2,0.5-0.4,0.7c-0.2,0.2-0.5,0.4-0.9,0.5c-0.4,0.1-0.9,0.2-1.4,0.2c-0.6,0-1.1-0.1-1.4-0.2c-0.4-0.1-0.7-0.3-0.9-0.5
	c-0.2-0.2-0.4-0.4-0.4-0.7c-0.1-0.2-0.1-0.5-0.1-0.7v-0.8c0-0.4,0.1-0.8,0.3-1.2c0.2-0.3,0.5-0.6,0.9-0.7c0.2-0.1,0.4-0.1,0.7-0.2
	c0.3-0.1,0.5-0.2,0.7-0.3c0.2-0.1,0.4-0.2,0.6-0.2c0.2-0.1,0.3-0.1,0.3-0.1c0,0,0.1-0.1,0.2-0.1c0.1,0,0.1-0.1,0.2-0.2
	c0.1-0.1,0.1-0.2,0.2-0.3c0.1-0.1,0.1-0.2,0.1-0.4v-0.3c0-0.1,0-0.2-0.1-0.3c0-0.1-0.1-0.2-0.2-0.3c-0.1-0.1-0.3-0.2-0.4-0.2
	c-0.2-0.1-0.4-0.1-0.7-0.1c-0.6,0-0.9,0.1-1.1,0.3c-0.2,0.2-0.3,0.5-0.3,0.8h-1.4v-0.4c0-0.3,0.1-0.5,0.2-0.8
	c0.1-0.2,0.3-0.5,0.5-0.6c0.2-0.2,0.5-0.3,0.9-0.4C117.6,38.4,118,38.4,118.5,38.4 M120,42.8c0,0.1-0.1,0.2-0.2,0.3
	c-0.1,0.1-0.2,0.1-0.3,0.1c-0.2,0.1-0.3,0.1-0.5,0.2c-0.2,0.1-0.4,0.1-0.5,0.2c-0.2,0.1-0.4,0.1-0.6,0.2c-0.1,0.1-0.3,0.1-0.4,0.2
	c-0.1,0.1-0.2,0.2-0.3,0.3c-0.1,0.1-0.1,0.3-0.1,0.5c0,0.4,0.1,0.7,0.3,0.9c0.2,0.2,0.6,0.3,1.1,0.3c0.6,0,0.9-0.1,1.1-0.3
	c0.2-0.2,0.3-0.5,0.3-0.9V42.8z"/>
<path class="st0" d="M125.9,38.4c0.2,0,0.4,0,0.5,0c0.1,0,0.3,0,0.4,0l-0.3,1.2c-0.1,0-0.2,0-0.3,0c-0.1,0-0.2,0-0.3,0
	c-0.3,0-0.5,0-0.7,0.1c-0.2,0.1-0.3,0.2-0.4,0.3c-0.1,0.1-0.2,0.2-0.2,0.3c0,0.1,0,0.2,0,0.3v0.2v6.4H123v-6.5v-0.4
	c0-0.1,0-0.3,0.1-0.5c0-0.2,0.2-0.5,0.4-0.7c0.2-0.2,0.5-0.4,0.9-0.6C124.7,38.5,125.2,38.4,125.9,38.4"/>
<path class="st0" d="M130.5,38.4c0.7,0,1.2,0.1,1.6,0.2c0.4,0.2,0.7,0.4,0.9,0.6c0.2,0.2,0.3,0.4,0.4,0.7c0,0.2,0.1,0.4,0.1,0.5v0.4
	v0v0.4c0,0.2,0,0.4-0.1,0.6c-0.1,0.2-0.2,0.5-0.5,0.8c-0.1,0.1-0.3,0.2-0.4,0.3c-0.2,0.1-0.3,0.1-0.4,0.2c-0.1,0-0.3,0.1-0.5,0.1
	h-1.3c-0.3,0-0.5,0.1-0.8,0.3c-0.2,0.2-0.3,0.5-0.3,0.8V45c0,0.3,0,0.5,0.2,0.6c0,0.1,0.1,0.1,0.2,0.2c0.1,0.1,0.1,0.1,0.3,0.2
	c0.1,0,0.2,0.1,0.3,0.1c0.1,0,0.3,0,0.5,0c0.3,0,0.5,0,0.7-0.1c0.2-0.1,0.3-0.1,0.4-0.2c0.1-0.1,0.2-0.2,0.3-0.4
	c0.1-0.2,0.1-0.3,0.1-0.5h1.4v0.4c0,0.3-0.1,0.6-0.2,0.8c-0.1,0.3-0.3,0.5-0.6,0.7c-0.2,0.1-0.5,0.3-0.8,0.4
	c-0.3,0.1-0.8,0.2-1.3,0.2c-0.4,0-0.7,0-1-0.1c-0.3-0.1-0.5-0.1-0.7-0.2c-0.2-0.1-0.4-0.2-0.5-0.3c-0.1-0.1-0.2-0.2-0.3-0.4
	c-0.2-0.3-0.3-0.6-0.3-1V45v-0.8v-3.4v0v-0.4c0-0.1,0-0.3,0.1-0.5c0-0.2,0.2-0.4,0.4-0.7c0.2-0.2,0.5-0.4,0.9-0.6
	C129.3,38.4,129.8,38.4,130.5,38.4 M131.9,40.8v-0.2c0-0.1,0-0.2,0-0.3c0-0.1-0.1-0.2-0.2-0.3c-0.1-0.1-0.2-0.2-0.4-0.3
	c-0.2-0.1-0.4-0.1-0.7-0.1c-0.3,0-0.6,0-0.8,0.1c-0.2,0.1-0.3,0.2-0.5,0.3s-0.2,0.2-0.2,0.3c0,0.1,0,0.2,0,0.3v0.2v0V41v1.4
	c0-0.1,0.1-0.2,0.2-0.2c0.1-0.1,0.2-0.1,0.3-0.1c0.1,0,0.2-0.1,0.3-0.1c0.1,0,0.2,0,0.2,0h1c0.3,0,0.5-0.1,0.7-0.3
	c0.2-0.2,0.3-0.4,0.3-0.7V40.8L131.9,40.8z"/>
<path class="st0" d="M138.6,40c-0.2-0.2-0.6-0.3-1.1-0.3c-0.3,0-0.5,0-0.7,0.1c-0.2,0.1-0.3,0.1-0.4,0.2c-0.1,0.1-0.2,0.2-0.2,0.3
	c0,0.1-0.1,0.2-0.1,0.3v0.3c0,0.1,0,0.3,0.1,0.4c0,0.1,0.1,0.2,0.2,0.3c0.1,0.1,0.1,0.1,0.2,0.2c0.1,0,0.1,0.1,0.2,0.1
	c0,0,0.2,0.1,0.3,0.1c0.2,0.1,0.4,0.1,0.6,0.2c0.2,0.1,0.5,0.2,0.7,0.3c0.3,0.1,0.5,0.2,0.7,0.2c0.4,0.1,0.7,0.4,0.9,0.7
	c0.2,0.3,0.3,0.7,0.3,1.2v0.8c0,0.2,0,0.4-0.1,0.7c-0.1,0.2-0.2,0.5-0.4,0.7c-0.2,0.2-0.5,0.4-0.9,0.5c-0.4,0.1-0.8,0.2-1.4,0.2
	c-0.6,0-1.1-0.1-1.4-0.2c-0.4-0.1-0.7-0.3-0.9-0.5c-0.2-0.2-0.4-0.4-0.4-0.7c-0.1-0.2-0.1-0.5-0.1-0.7v-0.5h1.4
	c0,0.4,0.1,0.7,0.3,0.9c0.2,0.2,0.6,0.3,1.1,0.3c0.5,0,0.9-0.1,1.1-0.3c0.2-0.2,0.3-0.5,0.3-0.9c0-0.2,0-0.4-0.1-0.5
	c-0.1-0.1-0.2-0.3-0.3-0.3c-0.1-0.1-0.3-0.2-0.4-0.2c-0.3-0.1-0.6-0.2-0.9-0.3c-0.3-0.1-0.5-0.2-0.7-0.3c-0.2-0.1-0.4-0.1-0.5-0.2
	c-0.1,0-0.2-0.1-0.4-0.2c-0.1-0.1-0.3-0.2-0.4-0.4c-0.1-0.1-0.2-0.3-0.3-0.5c-0.1-0.2-0.1-0.4-0.1-0.7v-0.8c0-0.6,0.2-1.1,0.7-1.5
	c0.5-0.4,1.2-0.6,2.2-0.6c0.5,0,0.9,0.1,1.3,0.2c0.4,0.1,0.7,0.3,0.9,0.4c0.2,0.2,0.4,0.4,0.5,0.6c0.1,0.2,0.2,0.5,0.2,0.8v0.4h-1.4
	C138.9,40.5,138.8,40.2,138.6,40"/>
<g>
	<path class="st0" d="M30.8,61.6C13.8,61.6,0,47.8,0,30.8C0,13.8,13.8,0,30.8,0s30.8,13.8,30.8,30.8C61.6,47.8,47.8,61.6,30.8,61.6"
		/>
	<path class="st1" d="M19.5,26.5v-4.4h20h0.5c0.3,0,0.7,0,1-0.1c0.4-0.1,0.7-0.3,1-0.6c0.3-0.3,0.6-0.8,0.8-1.3
		c0.2-0.6,0.3-1.3,0.3-2.3c0-1-0.1-1.8-0.3-2.4c-0.2-0.6-0.5-1.1-0.8-1.4c-0.3-0.3-0.7-0.5-1-0.7c-0.4-0.1-0.7-0.2-1-0.2h-0.6h-20
		V8.8h20.4h0.9c0.4,0,1,0.1,1.7,0.2c0.7,0.1,1.4,0.5,2.1,1.1c0.7,0.6,1.3,1.5,1.8,2.7c0.5,1.2,0.8,2.8,0.8,4.9
		c0,2.1-0.3,3.7-0.8,4.9c-0.5,1.2-1.1,2.1-1.8,2.7c-0.7,0.6-1.4,1-2.1,1.1c-0.7,0.1-1.3,0.2-1.6,0.2h-0.5H19.5z"/>
	<path class="st1" d="M41,47.3h0.7c0.5,0,1-0.1,1.5-0.3c0.5-0.2,1-0.5,1.4-1c0.4-0.5,0.8-1.2,1.1-2c0.3-0.8,0.4-1.8,0.4-3.1
		c0-2.5-0.5-4.2-1.5-5c-1-0.9-2.2-1.3-3.7-1.3H22.9c-1.9,0-3.3,0.4-4.2,1.3c-0.9,0.9-1.4,2.6-1.4,5c0,2.5,0.5,4.2,1.4,5.1
		s2.3,1.3,4.1,1.3v6.2h-2.2c-0.9,0-1.9-0.2-2.9-0.5c-1.1-0.3-2-1-2.9-1.9c-0.9-0.9-1.6-2.2-2.2-3.9c-0.6-1.6-0.9-3.8-0.9-6.4
		c0-2.6,0.3-4.8,0.9-6.4c0.6-1.6,1.3-2.9,2.2-3.9c0.9-0.9,1.9-1.6,2.9-1.9c1.1-0.3,2-0.5,2.9-0.5h3.5H41h1.8c1.2,0,2.4,0.2,3.5,0.7
		c1.1,0.5,2,1.2,2.9,2.3c0.8,1,1.5,2.4,1.9,3.9c0.5,1.6,0.7,3.5,0.7,5.7c0,4.4-0.9,7.6-2.6,9.6c-1.7,2-3.9,3-6.4,3H41V47.3z"/>
</g>
</svg>
